<svg id="visual" viewBox="0 0 960 540" width="960" height="540" xmlns="http://www.w3.org/2000/svg" xmlns:xlink="http://www.w3.org/1999/xlink" version="1.1"><rect x="0" y="0" width="960" height="540" fill="#89de8c"></rect><path d="M0 348L17.8 349.3C35.7 350.7 71.3 353.3 106.8 355.8C142.3 358.3 177.7 360.7 213.2 367.2C248.7 373.7 284.3 384.3 320 383.7C355.7 383 391.3 371 426.8 370.8C462.3 370.7 497.7 382.3 533.2 386.7C568.7 391 604.3 388 640 381.5C675.7 375 711.3 365 746.8 363C782.3 361 817.7 367 853.2 369.3C888.7 371.7 924.3 370.3 942.2 369.7L960 369L960 541L942.2 541C924.3 541 888.7 541 853.2 541C817.7 541 782.3 541 746.8 541C711.3 541 675.7 541 640 541C604.3 541 568.7 541 533.2 541C497.7 541 462.3 541 426.8 541C391.3 541 355.7 541 320 541C284.3 541 248.7 541 213.2 541C177.7 541 142.3 541 106.8 541C71.3 541 35.7 541 17.8 541L0 541Z" fill="#9cefc2" stroke-linecap="round" stroke-linejoin="miter"></path></svg>